# xmcd
#
# Track frame offsets:
#	150
#	18237
#	33119
#	54273
#	76030
#	100296
#	123305
#	141468
#	164477
#	183851
#	216382
#	250282
#
# Disc length: 3569 seconds
#
# Revision: 0
# Processed by: cddbd v1.5.2PL0 Copyright (c) Steve Scherf et al.
# Submitted via: EZCDAudioConverter 2.1.7.1
#
DISCID=9b0def0c
DTITLE=V/A - The Orange Collection 2/2
DYEAR=1900
DGENRE=
TTITLE0=Anoraak - Odds Are Good
TTITLE1=Ary - Higher
TTITLE2=Majestique featuring Lakshmi - Renegades
TTITLE3=Du Tonc - Animals
TTITLE4=NTEIBINT featuring Birsen - Riptide
TTITLE5=This Soft Machine - On and On
TTITLE6=Tarjei Nygard and Are Foss - Flog
TTITLE7=Moscoman - Fernandez
TTITLE8=Horixon featuring Maya - Hold It Like I Own It
TTITLE9=Trulz and Robin featuring Ost - Find My Love
TTITLE10=Marvin and Guy - Unfailing Fall
TTITLE11=Hydrogen Sea - Wear Out [Mees Dierdrop Remix]
EXTD=
EXTT0=
EXTT1=
EXTT2=
EXTT3=
EXTT4=
EXTT5=
EXTT6=
EXTT7=
EXTT8=
EXTT9=
EXTT10=
EXTT11=
PLAYORDER=
